<svg id="SVGRoot" version="1.1" viewBox="0 0 16 16" xmlns="http://www.w3.org/2000/svg">
	<path d="m14.8 2.62a1.61 1.55 0 0 1-1.61 1.55 1.61 1.55 0 0 1-1.61-1.55 1.61 1.55 0 0 1 1.61-1.55 1.61 1.55 0 0 1 1.61 1.55z" style="fill-opacity:.645;fill:#fff;paint-order:markers stroke fill;stroke-linecap:square;stroke-miterlimit:16;stroke-opacity:.901;stroke:#000"/>
	<path d="m15 12.1a2.99 2.99 0 0 1-2.99 2.99 2.99 2.99 0 0 1-2.99-2.99 2.99 2.99 0 0 1 2.99-2.99 2.99 2.99 0 0 1 2.99 2.99z" style="fill-opacity:.645;fill:#fff;paint-order:markers stroke fill;stroke-linecap:square;stroke-miterlimit:16;stroke-opacity:.901;stroke-width:1.91;stroke:#000"/>
	<path d="m11.1 8.42a5.05 4.91 0 0 1-5.05 4.91 5.05 4.91 0 0 1-5.05-4.91 5.05 4.91 0 0 1 5.05-4.91 5.05 4.91 0 0 1 5.05 4.91z" style="fill-opacity:.645;fill:#fff;paint-order:markers stroke fill;stroke-linecap:square;stroke-miterlimit:16;stroke-opacity:.901;stroke-width:2.03;stroke:#000"/>
</svg>
