<?xml version="1.0" encoding="UTF-8" standalone="no"?>
<svg
   xmlns:dc="http://purl.org/dc/elements/1.1/"
   xmlns:cc="http://creativecommons.org/ns#"
   xmlns:rdf="http://www.w3.org/1999/02/22-rdf-syntax-ns#"
   xmlns:svg="http://www.w3.org/2000/svg"
   xmlns="http://www.w3.org/2000/svg"
   xmlns:sodipodi="http://sodipodi.sourceforge.net/DTD/sodipodi-0.dtd"
   xmlns:inkscape="http://www.inkscape.org/namespaces/inkscape"
   id="SVGRoot"
   version="1.1"
   viewBox="0 0 16 16"
   sodipodi:docname="MyCirclesIcon.svg"
   inkscape:version="0.92.4 (5da689c313, 2019-01-14)">
  <metadata
     id="metadata15">
    <rdf:RDF>
      <cc:Work
         rdf:about="">
        <dc:format>image/svg+xml</dc:format>
        <dc:type
           rdf:resource="http://purl.org/dc/dcmitype/StillImage" />
      </cc:Work>
    </rdf:RDF>
  </metadata>
  <defs
     id="defs13" />
  <sodipodi:namedview
     pagecolor="#ffffff"
     bordercolor="#666666"
     borderopacity="1"
     objecttolerance="10"
     gridtolerance="10"
     guidetolerance="10"
     inkscape:pageopacity="0"
     inkscape:pageshadow="2"
     inkscape:window-width="2560"
     inkscape:window-height="1506"
     id="namedview11"
     showgrid="false"
     inkscape:zoom="83.4386"
     inkscape:cx="8.6628268"
     inkscape:cy="7.415867"
     inkscape:window-x="-11"
     inkscape:window-y="-11"
     inkscape:window-maximized="1"
     inkscape:current-layer="g8" />
  <g
     id="g8">
    <path
       d="m 14.827712,2.6201514 a 1.61,1.55 0 0 1 -1.61,1.55 1.61,1.55 0 0 1 -1.61,-1.55 1.61,1.55 0 0 1 1.61,-1.55 1.61,1.55 0 0 1 1.61,1.55 z"
       style="fill:#ffffff;fill-opacity:0.64499996;stroke:#08a8c2;stroke-width:1;stroke-linecap:square;stroke-miterlimit:16;stroke-dasharray:none;paint-order:markers stroke fill"
       id="path2"
       inkscape:connector-curvature="0" />
    <path
       d="M 15.014353,12.064046 A 2.9945041,2.9943528 0 0 1 12.019849,15.058398 2.9945041,2.9943528 0 0 1 9.0253445,12.064046 2.9945041,2.9943528 0 0 1 12.019849,9.0696927 2.9945041,2.9943528 0 0 1 15.014353,12.064046 Z"
       style="fill:#ffffff;fill-opacity:0.64499996;stroke:#08a8c2;stroke-width:1.90762758;stroke-linecap:square;stroke-miterlimit:16;paint-order:markers stroke fill"
       id="path4"
       inkscape:connector-curvature="0" />
    <path
       d="M 11.118332,8.4180152 A 5.052605,4.9066505 0 0 1 6.0657275,13.324665 5.052605,4.9066505 0 0 1 1.0131225,8.4180152 5.052605,4.9066505 0 0 1 6.0657275,3.5113647 5.052605,4.9066505 0 0 1 11.118332,8.4180152 Z"
       style="fill:#ffffff;fill-opacity:0.64499996;stroke:#08a8c2;stroke-width:2.03448725;stroke-linecap:square;stroke-miterlimit:16;paint-order:markers stroke fill"
       id="path6"
       inkscape:connector-curvature="0" />
  </g>
</svg>
